<svg xmlns="http://www.w3.org/2000/svg" viewBox="0 0 995.73 428.99">
  <defs>
    <style>
      .cls-1 {
        fill: #2d2e82;
      }

      .cls-2 {
        fill: #fe5b6a;
      }

      .cls-3 {
        fill: #60ddcd;
      }
    </style>
  </defs>
  <title>Asset 8</title>
  <g id="Layer_2" data-name="Layer 2">
    <g id="Layer_1-2" data-name="Layer 1">
      <path class="cls-1" d="M61.5,355.46C66.5,370.93,80.5,378,99,376c19-2,31.5-10.82,31.5-25.32,0-10-7-14.27-22.5-16.63L63,328.8c-34-4.41-58-19.37-58-56.87C5,228.43,44,195.3,94,190c56.5-6,87.5,17.76,95,59l-59,6.24c-4-12.08-14.5-20.47-35-18.3C80,238.5,65.5,247,65.5,261c0,9,6,13.37,20,15.39l46,5.64c39,5.38,59.5,24.71,59.5,58.71,0,45.5-39.5,76.68-91.5,82.17C45,428.7,6.5,406.77,0,362Z"/>
      <path class="cls-1" d="M837.73,422.44l-62,6.55V123l62-6.55v18.5c10-13,32-26.88,56-29.41,65-6.87,102,43.22,102,106.22s-37,120.41-102,127.28c-24,2.53-46-6.64-56-17.59Zm0-157.5c7.5,14.71,24,23.47,42,21.56,33.5-3.54,53.5-32.65,53.5-68.15,0-36-20-60.89-53.5-57.35-18.5,2-34.5,14.65-42,30.44Z"/>
      <path class="cls-1" d="M469.82,155.31V284c0,15.38-3.1,27.18-9.22,35.07-5.61,7.25-13.89,11.36-25.29,12.57s-19.68-1.16-25.29-7.22c-6.12-6.6-9.22-17.75-9.22-33.13V162.61L340.46,169V297.62c0,15.38-3.1,27.18-9.21,35.07-5.62,7.25-13.89,11.36-25.3,12.56s-19.67-1.15-25.29-7.22c-6.11-6.6-9.21-17.74-9.21-33.12V176.27l-60.35,6.38v133c0,29.85,9.11,53.47,26.34,68.3,16.55,14.24,40.24,20.19,68.51,17.2,26.25-2.77,48.5-12.35,64.75-27.78,16.28,12,38.48,16.88,64.61,14.12,28.4-3,52.14-14,68.65-31.7,17.14-18.43,26.2-44,26.2-73.85v-133Z"/>
      <path class="cls-1" d="M650.38,364.8c33.16-3.5,55.72-14.34,72.27-32.07,17.23-18.48,26.34-44,26.34-73.87v-133l-60.34,6.37V260.83c0,15.38-3.1,27.18-9.22,35.07-5.62,7.25-13.5,12.59-29,14.23s-23.44-2-29.06-8.09c-6.11-6.6-9.21-17.74-9.21-33.12V140.28l-60.35,6.38v133c0,29.85,9.11,53.47,26.34,68.3C594.65,362.24,617.22,368.31,650.38,364.8Z"/>
      <path class="cls-2" d="M530.6,95.07c0,17.85-15.11,32.5-33.42,32.5a32.63,32.63,0,0,1-32.5-32.5c0-18.77,14.65-33.42,32.5-33.42A33.31,33.31,0,0,1,530.6,95.07Z"/>
      <path class="cls-3" d="M614.9,33.42c0,17.85-15.11,32.5-33.42,32.5A32.63,32.63,0,0,1,549,33.42C549,14.65,563.63,0,581.48,0A33.31,33.31,0,0,1,614.9,33.42Z"/>
    </g>
  </g>
</svg>
